<?xml version="1.0" encoding="UTF-8" standalone="no"?>
<!DOCTYPE svg PUBLIC "-//W3C//DTD SVG 1.1//EN" "http://www.w3.org/Graphics/SVG/1.1/DTD/svg11.dtd">
<svg width="100%" height="100%" viewBox="0 0 512 512" version="1.1" xmlns="http://www.w3.org/2000/svg" xmlns:xlink="http://www.w3.org/1999/xlink" xml:space="preserve" xmlns:serif="http://www.serif.com/" style="fill-rule:evenodd;clip-rule:evenodd;stroke-linejoin:round;stroke-miterlimit:2;">
    <g transform="matrix(1,0,0,1,-60.2422,2)">
        <g transform="matrix(80,0,0,80,168,177)">
            <path d="M0.282,-0.067L0.282,-0.511C0.2,-0.448 0.144,-0.416 0.115,-0.416C0.102,-0.416 0.089,-0.421 0.079,-0.432C0.068,-0.443 0.063,-0.456 0.063,-0.47C0.063,-0.487 0.068,-0.499 0.079,-0.507C0.089,-0.515 0.107,-0.525 0.134,-0.537C0.173,-0.556 0.205,-0.575 0.228,-0.596C0.252,-0.616 0.273,-0.639 0.291,-0.665C0.309,-0.69 0.321,-0.706 0.327,-0.711C0.332,-0.717 0.343,-0.72 0.358,-0.72C0.375,-0.72 0.389,-0.714 0.399,-0.7C0.41,-0.687 0.415,-0.668 0.415,-0.645L0.415,-0.086C0.415,-0.021 0.393,0.012 0.348,0.012C0.328,0.012 0.312,0.006 0.3,-0.008C0.288,-0.021 0.282,-0.041 0.282,-0.067Z" style="fill:white;fill-rule:nonzero;"/>
        </g>
        <g transform="matrix(80,0,0,80,215.539,177)">
            <path d="M0.547,-0.351C0.547,-0.298 0.544,-0.252 0.537,-0.213C0.531,-0.175 0.519,-0.14 0.501,-0.109C0.479,-0.07 0.45,-0.041 0.415,-0.02C0.38,0.001 0.341,0.011 0.298,0.011C0.248,0.011 0.204,-0.003 0.165,-0.031C0.126,-0.059 0.096,-0.097 0.076,-0.147C0.066,-0.174 0.059,-0.204 0.054,-0.237C0.049,-0.269 0.047,-0.305 0.047,-0.343C0.047,-0.392 0.049,-0.436 0.055,-0.476C0.06,-0.515 0.068,-0.549 0.079,-0.577C0.098,-0.624 0.126,-0.66 0.163,-0.684C0.199,-0.709 0.243,-0.721 0.294,-0.721C0.327,-0.721 0.358,-0.716 0.385,-0.705C0.413,-0.694 0.437,-0.678 0.457,-0.657C0.478,-0.636 0.495,-0.61 0.51,-0.579C0.535,-0.525 0.547,-0.449 0.547,-0.351ZM0.413,-0.361C0.413,-0.42 0.41,-0.469 0.402,-0.507C0.395,-0.545 0.383,-0.574 0.366,-0.593C0.349,-0.612 0.326,-0.622 0.296,-0.622C0.253,-0.622 0.223,-0.6 0.206,-0.557C0.19,-0.514 0.181,-0.447 0.181,-0.357C0.181,-0.296 0.185,-0.246 0.192,-0.207C0.199,-0.167 0.211,-0.138 0.228,-0.118C0.245,-0.098 0.268,-0.088 0.297,-0.088C0.327,-0.088 0.35,-0.098 0.367,-0.119C0.384,-0.14 0.396,-0.17 0.403,-0.208C0.41,-0.247 0.413,-0.298 0.413,-0.361Z" style="fill:white;fill-rule:nonzero;"/>
        </g>
        <g transform="matrix(80,0,0,80,263.078,177)">
            <path d="M0.547,-0.351C0.547,-0.298 0.544,-0.252 0.537,-0.213C0.531,-0.175 0.519,-0.14 0.501,-0.109C0.479,-0.07 0.45,-0.041 0.415,-0.02C0.38,0.001 0.341,0.011 0.298,0.011C0.248,0.011 0.204,-0.003 0.165,-0.031C0.126,-0.059 0.096,-0.097 0.076,-0.147C0.066,-0.174 0.059,-0.204 0.054,-0.237C0.049,-0.269 0.047,-0.305 0.047,-0.343C0.047,-0.392 0.049,-0.436 0.055,-0.476C0.06,-0.515 0.068,-0.549 0.079,-0.577C0.098,-0.624 0.126,-0.66 0.163,-0.684C0.199,-0.709 0.243,-0.721 0.294,-0.721C0.327,-0.721 0.358,-0.716 0.385,-0.705C0.413,-0.694 0.437,-0.678 0.457,-0.657C0.478,-0.636 0.495,-0.61 0.51,-0.579C0.535,-0.525 0.547,-0.449 0.547,-0.351ZM0.413,-0.361C0.413,-0.42 0.41,-0.469 0.402,-0.507C0.395,-0.545 0.383,-0.574 0.366,-0.593C0.349,-0.612 0.326,-0.622 0.296,-0.622C0.253,-0.622 0.223,-0.6 0.206,-0.557C0.19,-0.514 0.181,-0.447 0.181,-0.357C0.181,-0.296 0.185,-0.246 0.192,-0.207C0.199,-0.167 0.211,-0.138 0.228,-0.118C0.245,-0.098 0.268,-0.088 0.297,-0.088C0.327,-0.088 0.35,-0.098 0.367,-0.119C0.384,-0.14 0.396,-0.17 0.403,-0.208C0.41,-0.247 0.413,-0.298 0.413,-0.361Z" style="fill:white;fill-rule:nonzero;"/>
        </g>
        <g transform="matrix(1,0,0,1,2,-2)">
            <path d="M378.5,138.281L378.5,396C378.5,415.2 362.7,431 343.5,431L168.5,431C149.3,431 133.5,415.2 133.5,396L133.5,116C133.5,96.8 149.3,81 168.5,81L343.5,81C362.7,81 378.5,96.8 378.5,116L378.5,127.078C377.274,128.622 375.913,130.044 374.418,131.344C372.53,132.984 370.01,134.547 366.859,136.031C364.75,137.021 363.279,137.828 362.445,138.453C361.612,139.078 361.195,140.055 361.195,141.383C361.195,142.529 361.618,143.538 362.465,144.41C363.311,145.283 364.281,145.719 365.375,145.719C367.639,145.719 372.014,143.24 378.5,138.281L378.5,127.078C378.822,126.672 379.134,126.258 379.438,125.836C380.896,123.805 381.846,122.555 382.289,122.086C382.732,121.617 383.565,121.383 384.789,121.383C386.169,121.383 387.276,121.917 388.109,122.984C388.943,124.052 389.359,125.523 389.359,127.398L389.359,172.125C389.359,177.359 387.576,179.977 384.008,179.977C382.419,179.977 381.143,179.443 380.18,178.375C379.216,177.307 378.734,175.732 378.734,173.648L378.734,138.102L378.5,138.281ZM168.5,361L168.5,396L203.5,396L203.5,361L168.5,361ZM238.5,361L238.5,396L273.5,396L273.5,361L238.5,361ZM308.5,361L308.5,396L343.5,396L343.5,361L308.5,361ZM168.5,291L168.5,326L203.5,326L203.5,291L168.5,291ZM238.5,291L238.5,326L273.5,326L273.5,291L238.5,291ZM308.5,291L308.5,326L343.5,326L343.5,291L308.5,291ZM168.5,221L168.5,256L203.5,256L203.5,221L168.5,221ZM238.5,221L238.5,256L273.5,256L273.5,221L238.5,221ZM308.5,221L308.5,256L343.5,256L343.5,221L308.5,221ZM343.5,124.93L343.5,116L168.5,116L168.5,186L343.5,186L343.5,176.273C345.559,174.721 347.291,172.726 348.695,170.289C350.102,167.789 351.065,165.003 351.586,161.93C352.107,158.857 352.367,155.185 352.367,150.914C352.367,143.049 351.378,136.969 349.398,132.672C348.253,130.198 346.853,128.121 345.199,126.441C344.661,125.895 344.095,125.391 343.5,124.93ZM343.5,176.273C342.962,176.678 342.403,177.053 341.82,177.398C339.008,179.065 335.883,179.898 332.445,179.898C328.487,179.898 324.939,178.779 321.801,176.539C318.663,174.299 316.299,171.201 314.711,167.242C313.904,165.081 313.311,162.691 312.934,160.074C312.556,157.457 312.367,154.625 312.367,151.578C312.367,147.646 312.576,144.104 312.992,140.953C313.409,137.802 314.06,135.094 314.945,132.828C316.482,129.078 318.715,126.22 321.645,124.254C324.574,122.288 328.07,121.305 332.133,121.305C334.815,121.305 337.25,121.741 339.438,122.613C340.913,123.202 342.267,123.974 343.5,124.93L343.5,176.273ZM341.664,150.133C341.664,145.367 341.378,141.467 340.805,138.434C340.232,135.4 339.268,133.108 337.914,131.559C336.56,130.009 334.685,129.234 332.289,129.234C328.852,129.234 326.462,130.966 325.121,134.43C323.78,137.893 323.109,143.232 323.109,150.445C323.109,155.341 323.396,159.352 323.969,162.477C324.542,165.602 325.505,167.965 326.859,169.566C328.214,171.168 330.049,171.969 332.367,171.969C334.763,171.969 336.638,171.135 337.992,169.469C339.346,167.802 340.297,165.419 340.844,162.32C341.391,159.221 341.664,155.159 341.664,150.133Z" style="fill:white;fill-rule:nonzero;"/>
        </g>
        <g transform="matrix(80,0,0,80,405.695,177)">
            <path d="M0.282,-0.067L0.282,-0.511C0.2,-0.448 0.144,-0.416 0.115,-0.416C0.102,-0.416 0.089,-0.421 0.079,-0.432C0.068,-0.443 0.063,-0.456 0.063,-0.47C0.063,-0.487 0.068,-0.499 0.079,-0.507C0.089,-0.515 0.107,-0.525 0.134,-0.537C0.173,-0.556 0.205,-0.575 0.228,-0.596C0.252,-0.616 0.273,-0.639 0.291,-0.665C0.309,-0.69 0.321,-0.706 0.327,-0.711C0.332,-0.717 0.343,-0.72 0.358,-0.72C0.375,-0.72 0.389,-0.714 0.399,-0.7C0.41,-0.687 0.415,-0.668 0.415,-0.645L0.415,-0.086C0.415,-0.021 0.393,0.012 0.348,0.012C0.328,0.012 0.312,0.006 0.3,-0.008C0.288,-0.021 0.282,-0.041 0.282,-0.067Z" style="fill:white;fill-rule:nonzero;"/>
        </g>
        <g transform="matrix(80,0,0,80,453.234,177)">
            <path d="M0.547,-0.351C0.547,-0.298 0.544,-0.252 0.537,-0.213C0.531,-0.175 0.519,-0.14 0.501,-0.109C0.479,-0.07 0.45,-0.041 0.415,-0.02C0.38,0.001 0.341,0.011 0.298,0.011C0.248,0.011 0.204,-0.003 0.165,-0.031C0.126,-0.059 0.096,-0.097 0.076,-0.147C0.066,-0.174 0.059,-0.204 0.054,-0.237C0.049,-0.269 0.047,-0.305 0.047,-0.343C0.047,-0.392 0.049,-0.436 0.055,-0.476C0.06,-0.515 0.068,-0.549 0.079,-0.577C0.098,-0.624 0.126,-0.66 0.163,-0.684C0.199,-0.709 0.243,-0.721 0.294,-0.721C0.327,-0.721 0.358,-0.716 0.385,-0.705C0.413,-0.694 0.437,-0.678 0.457,-0.657C0.478,-0.636 0.495,-0.61 0.51,-0.579C0.535,-0.525 0.547,-0.449 0.547,-0.351ZM0.413,-0.361C0.413,-0.42 0.41,-0.469 0.402,-0.507C0.395,-0.545 0.383,-0.574 0.366,-0.593C0.349,-0.612 0.326,-0.622 0.296,-0.622C0.253,-0.622 0.223,-0.6 0.206,-0.557C0.19,-0.514 0.181,-0.447 0.181,-0.357C0.181,-0.296 0.185,-0.246 0.192,-0.207C0.199,-0.167 0.211,-0.138 0.228,-0.118C0.245,-0.098 0.268,-0.088 0.297,-0.088C0.327,-0.088 0.35,-0.098 0.367,-0.119C0.384,-0.14 0.396,-0.17 0.403,-0.208C0.41,-0.247 0.413,-0.298 0.413,-0.361Z" style="fill:white;fill-rule:nonzero;"/>
        </g>
    </g>
</svg>
